<svg width="1440" height="600" viewBox="0 0 1440 600" fill="none" xmlns="http://www.w3.org/2000/svg">
<path d="M500.779 599.883C456.279 501.55 450.179 310.383 781.779 332.383C1113.38 354.383 1085.5 304.5 1140 215.5C1212.87 96.4999 1385.5 39.9999 1521.5 232.5" stroke="white" stroke-width="2" stroke-linecap="round" stroke-dasharray="134 164"/>
<path d="M-67 628.5C-43.8333 501.167 75.5 248.6 367.5 257C732.5 267.5 851 -61 551 -143" stroke="white" stroke-width="2" stroke-linecap="round" stroke-dasharray="134 164"/>
<path d="M24 609C68.6667 512.333 383.5 351.282 957 609C1219.83 727.109 1406.52 626.613 1529.01 439.5" stroke="white" stroke-width="2" stroke-miterlimit="1.00382" stroke-linecap="round" stroke-dasharray="134 164"/>
<path d="M281 617.5C264.333 422.5 310.5 -23 832 166C1012.96 231.583 1192.67 26.8333 1072.5 -109.5" stroke="white" stroke-width="2" stroke-miterlimit="1.00382" stroke-linecap="round" stroke-dasharray="134 174"/>
<path d="M1469 441C1364 266.667 1101.9 -71.7999 893.5 -30.9999C633 20.0001 -130 -68.9999 -99.5 254" stroke="white" stroke-width="2" stroke-miterlimit="1.00382" stroke-linecap="round" stroke-dasharray="134 174"/>
<path d="M-61.5 276.5C-27.1667 169.5 335 -100.5 575 233C917.906 709.496 1182 548 1371 391C1522.2 265.4 1516.83 136.5 1515.5 123" stroke="white" stroke-width="2" stroke-linecap="round" stroke-dasharray="134 164"/>
<path d="M-17 337C112.833 175.167 609.3 -74.4 1186.5 -134" stroke="white" stroke-width="2" stroke-miterlimit="1.00382" stroke-linecap="round" stroke-dasharray="134 164"/>
<circle cx="1223.5" cy="137.5" r="29.5" stroke="white" stroke-width="2"/>
<circle cx="1223.5" cy="137.5" r="12.5" fill="#43B97F"/>
<circle cx="480.5" cy="475.5" r="32.5" stroke="white" stroke-width="2"/>
<circle cx="480.5" cy="475.5" r="10.5" fill="#4C90F2"/>
<circle cx="144.5" cy="514.5" r="10.5" fill="#FF6650"/>
<circle cx="1371.5" cy="524.5" r="10.5" fill="#FFB951"/>
<circle cx="690.5" cy="128.5" r="22.5" fill="#C280D2"/>
</svg>
